<mxfile host="app.diagrams.net" agent="Mozilla/5.0 (Windows NT 10.0; Win64; x64; rv:130.0) Gecko/20100101 Firefox/130.0" version="24.7.16">
  <diagram id="C5RBs43oDa-KdzZeNtuy" name="Page-1">
    <mxGraphModel dx="2514" dy="2080" grid="1" gridSize="10" guides="1" tooltips="1" connect="1" arrows="1" fold="1" page="1" pageScale="1" pageWidth="827" pageHeight="1169" math="0" shadow="0">
      <root>
        <mxCell id="WIyWlLk6GJQsqaUBKTNV-0" />
        <mxCell id="WIyWlLk6GJQsqaUBKTNV-1" parent="WIyWlLk6GJQsqaUBKTNV-0" />
        <mxCell id="U-8SNHVkmS-fnvo2k3dn-1" style="edgeStyle=orthogonalEdgeStyle;rounded=0;orthogonalLoop=1;jettySize=auto;html=1;" edge="1" parent="WIyWlLk6GJQsqaUBKTNV-1" source="U-8SNHVkmS-fnvo2k3dn-0">
          <mxGeometry relative="1" as="geometry">
            <mxPoint x="-300" as="targetPoint" />
          </mxGeometry>
        </mxCell>
        <mxCell id="U-8SNHVkmS-fnvo2k3dn-3" value="contains" style="edgeLabel;html=1;align=center;verticalAlign=middle;resizable=0;points=[];" vertex="1" connectable="0" parent="U-8SNHVkmS-fnvo2k3dn-1">
          <mxGeometry x="-0.0059" y="3" relative="1" as="geometry">
            <mxPoint as="offset" />
          </mxGeometry>
        </mxCell>
        <mxCell id="U-8SNHVkmS-fnvo2k3dn-4" style="edgeStyle=orthogonalEdgeStyle;rounded=0;orthogonalLoop=1;jettySize=auto;html=1;entryX=0.5;entryY=0;entryDx=0;entryDy=0;" edge="1" parent="WIyWlLk6GJQsqaUBKTNV-1">
          <mxGeometry relative="1" as="geometry">
            <mxPoint x="120" y="-0.05000000000001137" as="targetPoint" />
            <mxPoint x="-51" y="-94.99736842105273" as="sourcePoint" />
          </mxGeometry>
        </mxCell>
        <mxCell id="U-8SNHVkmS-fnvo2k3dn-5" value="contains" style="edgeLabel;html=1;align=center;verticalAlign=middle;resizable=0;points=[];" vertex="1" connectable="0" parent="U-8SNHVkmS-fnvo2k3dn-4">
          <mxGeometry x="-0.3201" relative="1" as="geometry">
            <mxPoint as="offset" />
          </mxGeometry>
        </mxCell>
        <mxCell id="U-8SNHVkmS-fnvo2k3dn-10" style="edgeStyle=orthogonalEdgeStyle;rounded=0;orthogonalLoop=1;jettySize=auto;html=1;entryX=0.5;entryY=0;entryDx=0;entryDy=0;" edge="1" parent="WIyWlLk6GJQsqaUBKTNV-1" source="U-8SNHVkmS-fnvo2k3dn-0" target="U-8SNHVkmS-fnvo2k3dn-11">
          <mxGeometry relative="1" as="geometry">
            <mxPoint x="-96" y="90" as="targetPoint" />
          </mxGeometry>
        </mxCell>
        <mxCell id="U-8SNHVkmS-fnvo2k3dn-0" value="Math (package)" style="whiteSpace=wrap;html=1;aspect=fixed;" vertex="1" parent="WIyWlLk6GJQsqaUBKTNV-1">
          <mxGeometry x="-141" y="-140" width="90" height="90" as="geometry" />
        </mxCell>
        <mxCell id="U-8SNHVkmS-fnvo2k3dn-2" value="&lt;div&gt;Matrix.java&lt;/div&gt;&lt;div&gt;-double a,b,c,d&lt;/div&gt;&lt;div&gt;&lt;br&gt;&lt;/div&gt;" style="rounded=0;whiteSpace=wrap;html=1;" vertex="1" parent="WIyWlLk6GJQsqaUBKTNV-1">
          <mxGeometry x="-360" width="120" height="60" as="geometry" />
        </mxCell>
        <mxCell id="U-8SNHVkmS-fnvo2k3dn-7" style="edgeStyle=orthogonalEdgeStyle;rounded=0;orthogonalLoop=1;jettySize=auto;html=1;" edge="1" parent="WIyWlLk6GJQsqaUBKTNV-1" source="U-8SNHVkmS-fnvo2k3dn-6">
          <mxGeometry relative="1" as="geometry">
            <mxPoint x="120" y="150" as="targetPoint" />
          </mxGeometry>
        </mxCell>
        <mxCell id="U-8SNHVkmS-fnvo2k3dn-6" value="&lt;div&gt;Coordinate.java&lt;/div&gt;&lt;div&gt;-double x&lt;/div&gt;&lt;div&gt;-double y&lt;br&gt;&lt;/div&gt;" style="rounded=0;whiteSpace=wrap;html=1;" vertex="1" parent="WIyWlLk6GJQsqaUBKTNV-1">
          <mxGeometry x="60" width="120" height="60" as="geometry" />
        </mxCell>
        <mxCell id="U-8SNHVkmS-fnvo2k3dn-8" value="&lt;div&gt;Vector.java&lt;/div&gt;-double magnitude" style="rounded=0;whiteSpace=wrap;html=1;" vertex="1" parent="WIyWlLk6GJQsqaUBKTNV-1">
          <mxGeometry x="60" y="100" width="120" height="60" as="geometry" />
        </mxCell>
        <mxCell id="U-8SNHVkmS-fnvo2k3dn-11" value="&lt;div&gt;Calculator.java&lt;/div&gt;&lt;div&gt;+Vector multiply(Matrix, Coordinate)&lt;br&gt;&lt;/div&gt;&lt;div&gt;+Vector[] multiply(Matrix, Coordinate[])&lt;/div&gt;&lt;div&gt;+Matrix getInverse(Matrix)&lt;/div&gt;&lt;div&gt;+double getDeteminant(Matrix)&lt;/div&gt;&lt;div&gt;+Matrix getTranspose(Matrix)&lt;br&gt;&lt;/div&gt;" style="rounded=0;whiteSpace=wrap;html=1;" vertex="1" parent="WIyWlLk6GJQsqaUBKTNV-1">
          <mxGeometry x="-193" width="194" height="170" as="geometry" />
        </mxCell>
        <mxCell id="U-8SNHVkmS-fnvo2k3dn-14" style="edgeStyle=orthogonalEdgeStyle;rounded=0;orthogonalLoop=1;jettySize=auto;html=1;entryX=1;entryY=0.25;entryDx=0;entryDy=0;" edge="1" parent="WIyWlLk6GJQsqaUBKTNV-1" source="U-8SNHVkmS-fnvo2k3dn-12" target="U-8SNHVkmS-fnvo2k3dn-0">
          <mxGeometry relative="1" as="geometry" />
        </mxCell>
        <mxCell id="U-8SNHVkmS-fnvo2k3dn-15" value="Uses" style="edgeLabel;html=1;align=center;verticalAlign=middle;resizable=0;points=[];" vertex="1" connectable="0" parent="U-8SNHVkmS-fnvo2k3dn-14">
          <mxGeometry x="-0.2335" relative="1" as="geometry">
            <mxPoint as="offset" />
          </mxGeometry>
        </mxCell>
        <mxCell id="U-8SNHVkmS-fnvo2k3dn-12" value="Driver/Test(package)" style="rounded=0;whiteSpace=wrap;html=1;" vertex="1" parent="WIyWlLk6GJQsqaUBKTNV-1">
          <mxGeometry x="280" y="-360" width="120" height="60" as="geometry" />
        </mxCell>
        <mxCell id="U-8SNHVkmS-fnvo2k3dn-13" value="Controllers (package)" style="rounded=0;whiteSpace=wrap;html=1;" vertex="1" parent="WIyWlLk6GJQsqaUBKTNV-1">
          <mxGeometry x="570" y="-360" width="120" height="60" as="geometry" />
        </mxCell>
        <mxCell id="U-8SNHVkmS-fnvo2k3dn-18" value="UI (package)" style="rounded=0;whiteSpace=wrap;html=1;" vertex="1" parent="WIyWlLk6GJQsqaUBKTNV-1">
          <mxGeometry x="560" y="-200" width="120" height="60" as="geometry" />
        </mxCell>
      </root>
    </mxGraphModel>
  </diagram>
</mxfile>
